<svg xmlns="http://www.w3.org/2000/svg" xmlns:xlink="http://www.w3.org/1999/xlink" width="100" height="100" viewBox="0 0 100 100" fill="none"><path d="M100 100L100 15L84.1109 23.1034L99.95 32.24L99.95 62.51L85.22 71.32L85.22 41.53L68.1845 31.2259L62.4952 34.1275L79.45 44.44L79.45 65.95L66.5 73.9L66.5 52.5L48.0655 41.4866L0 66L0 100L100 100ZM33.15 88.58Q32.38 89.14 31.32 89.14Q30.2 89.14 29.32 88.54Q28.44 87.94 27.93 86.82Q27.42 85.7 27.42 84.22Q27.42 82.74 27.93 81.63Q28.44 80.52 29.32 79.92Q30.2 79.32 31.32 79.32Q32.38 79.32 33.15 79.88Q33.92 80.44 34.38 81.44L36.8 80.04Q36.26 78.56 34.82 77.61Q33.38 76.66 31.38 76.66Q29.44 76.66 27.83 77.6Q26.22 78.54 25.29 80.26Q24.36 81.98 24.36 84.22Q24.36 86.46 25.3 88.19Q26.24 89.92 27.84 90.86Q29.44 91.8 31.38 91.8Q33.38 91.8 34.82 90.85Q36.26 89.9 36.8 88.42L34.38 87.02Q33.92 88.02 33.15 88.58ZM1.54 91.56L4.44 91.56L4.44 76.92L1.54 76.92L1.54 91.56ZM21.98 76.92L19.78 76.92L14.8 84.5L9.8 76.92L7.5 76.92L7.5 91.56L10.24 91.56L10.24 82.08L13.98 87.66L15.5 87.66L19.22 82.12L19.22 91.56L21.98 91.56L21.98 76.92ZM52.64 91.54L56.1 91.56L51.98 85.68Q53.28 85.12 54 84.06Q54.72 83 54.72 81.6Q54.72 80.22 54.02 79.15Q53.32 78.08 52.02 77.5Q50.72 76.92 49 76.92L43.94 76.92L43.94 91.56L46.84 91.56L46.84 86.28L49.08 86.28L52.64 91.54ZM60.54 85.38L66.48 85.38L66.48 82.88L60.54 82.88L60.54 79.44L67.18 79.44L67.18 76.92L57.64 76.92L57.64 91.56L67.4 91.56L67.4 89.02L60.54 89.02L60.54 85.38ZM46.84 83.82L46.84 79.38L48.66 79.38Q49.96 79.38 50.8 79.92Q51.64 80.46 51.64 81.6Q51.64 82.72 50.79 83.27Q49.94 83.82 48.66 83.82L46.84 83.82ZM38.6 91.34Q39.08 91.84 39.76 91.84Q40.46 91.84 40.95 91.34Q41.44 90.84 41.44 90.14Q41.44 89.44 40.95 88.94Q40.46 88.44 39.76 88.44Q39.08 88.44 38.6 88.94Q38.12 89.44 38.12 90.14Q38.12 90.84 38.6 91.34ZM21 96L1 96L1 98L21 98L21 96Z" fill-rule="evenodd"  fill="#000000" ></path></svg>