<svg xmlns="http://www.w3.org/2000/svg" xmlns:xlink="http://www.w3.org/1999/xlink" width="100" height="100" viewBox="0 0 100 100" fill="none"><path d="M0 0L100 0L0 100L0 0Z"   fill="#FFFFFF" ></path><g  mask="url(#mask-1_1)"><path     fill="#000000"  d="M3.644 1.998L3.644 4.968L6.236 4.968L6.236 6.282L-0.352 6.282L-0.352 4.968L2.483 4.968L2.483 1.998L-0.352 1.998L-0.352 0.693L6.236 0.693L6.236 1.998L3.644 1.998ZM2.951 7.353Q3.986 7.353 4.76 7.767Q5.534 8.181 5.9435 8.8965Q6.353 9.612 6.353 10.494Q6.353 11.376 5.9435 12.0915Q5.534 12.807 4.76 13.2255Q3.986 13.644 2.951 13.644Q1.907 13.644 1.133 13.2255Q0.359 12.807 -0.0504999 12.0915Q-0.46 11.376 -0.46 10.494Q-0.46 9.612 -0.0504999 8.8965Q0.359 8.181 1.133 7.767Q1.907 7.353 2.951 7.353ZM2.951 8.73Q2.294 8.73 1.79 8.9505Q1.286 9.171 1.0115 9.5715Q0.737 9.972 0.737 10.494Q0.737 11.016 1.0115 11.4165Q1.286 11.817 1.79 12.0375Q2.294 12.258 2.951 12.258Q3.608 12.258 4.1075 12.0375Q4.607 11.817 4.8815 11.4165Q5.156 11.016 5.156 10.494Q5.156 9.972 4.8815 9.5715Q4.607 9.171 4.1075 8.9505Q3.608 8.73 2.951 8.73ZM-0.352 20.187L-0.343 18.63L2.024 17.028L2.024 16.974L2.024 16.02L-0.352 16.02L-0.352 14.715L6.236 14.715L6.236 16.992Q6.236 17.766 5.975 18.351Q5.714 18.936 5.2325 19.251Q4.751 19.566 4.13 19.566Q3.5 19.566 3.023 19.242Q2.546 18.918 2.294 18.333L-0.352 20.187ZM5.129 16.02L3.131 16.02L3.131 16.839Q3.131 17.415 3.3785 17.7975Q3.626 18.18 4.13 18.18Q4.643 18.18 4.886 17.802Q5.129 17.424 5.129 16.839L5.129 16.02ZM-0.352 22.185L-0.352 20.88L6.236 20.88L6.236 22.185L-0.352 22.185ZM6.236 27.9L5.516 27.9L0.818 24.84L0.818 28.026L-0.352 28.026L-0.352 23.022L0.377 23.022L5.075 26.091L5.075 23.301L6.236 23.301L6.236 27.9ZM2.951 28.566Q3.986 28.566 4.76 28.98Q5.534 29.394 5.9435 30.1095Q6.353 30.825 6.353 31.707Q6.353 32.589 5.9435 33.3045Q5.534 34.02 4.76 34.4385Q3.986 34.857 2.951 34.857Q1.907 34.857 1.133 34.4385Q0.359 34.02 -0.0504999 33.3045Q-0.46 32.589 -0.46 31.707Q-0.46 30.825 -0.0504999 30.1095Q0.359 29.394 1.133 28.98Q1.907 28.566 2.951 28.566ZM2.951 29.943Q2.294 29.943 1.79 30.1635Q1.286 30.384 1.0115 30.7845Q0.737 31.185 0.737 31.707Q0.737 32.229 1.0115 32.6295Q1.286 33.03 1.79 33.2505Q2.294 33.471 2.951 33.471Q3.608 33.471 4.1075 33.2505Q4.607 33.03 4.8815 32.6295Q5.156 32.229 5.156 31.707Q5.156 31.185 4.8815 30.7845Q4.607 30.384 4.1075 30.1635Q3.608 29.943 2.951 29.943ZM6.236 36.981L1.88 40.176L6.236 40.176L6.236 41.391L-0.352 41.391L-0.352 40.329L4.013 37.125L-0.352 37.125L-0.352 35.928L6.236 35.928L6.236 36.981ZM6.236 47.264Q6.236 48.047 5.966 48.632Q5.696 49.217 5.2055 49.5365Q4.715 49.856 4.058 49.856Q3.41 49.856 2.9195 49.5365Q2.429 49.217 2.1635 48.632Q1.898 48.047 1.898 47.264L1.898 46.301L-0.352 46.301L-0.352 44.996L6.236 44.996L6.236 47.264ZM3.005 47.12Q3.005 47.732 3.2705 48.101Q3.536 48.47 4.058 48.47Q4.58 48.47 4.8545 48.101Q5.129 47.732 5.129 47.12L5.129 46.301L3.005 46.301L3.005 47.12ZM-0.352 56.201L-0.343 54.644L2.024 53.042L2.024 52.988L2.024 52.034L-0.352 52.034L-0.352 50.729L6.236 50.729L6.236 53.006Q6.236 53.78 5.975 54.365Q5.714 54.95 5.2325 55.265Q4.751 55.58 4.13 55.58Q3.5 55.58 3.023 55.256Q2.546 54.932 2.294 54.347L-0.352 56.201ZM5.129 52.034L3.131 52.034L3.131 52.853Q3.131 53.429 3.3785 53.8115Q3.626 54.194 4.13 54.194Q4.643 54.194 4.886 53.816Q5.129 53.438 5.129 52.853L5.129 52.034ZM2.951 56.579Q3.986 56.579 4.76 56.993Q5.534 57.407 5.9435 58.1225Q6.353 58.838 6.353 59.72Q6.353 60.602 5.9435 61.3175Q5.534 62.033 4.76 62.4515Q3.986 62.87 2.951 62.87Q1.907 62.87 1.133 62.4515Q0.359 62.033 -0.0504999 61.3175Q-0.46 60.602 -0.46 59.72Q-0.46 58.838 -0.0504999 58.1225Q0.359 57.407 1.133 56.993Q1.907 56.579 2.951 56.579ZM2.951 57.956Q2.294 57.956 1.79 58.1765Q1.286 58.397 1.0115 58.7975Q0.737 59.198 0.737 59.72Q0.737 60.242 1.0115 60.6425Q1.286 61.043 1.79 61.2635Q2.294 61.484 2.951 61.484Q3.608 61.484 4.1075 61.2635Q4.607 61.043 4.8815 60.6425Q5.156 60.242 5.156 59.72Q5.156 59.198 4.8815 58.7975Q4.607 58.397 4.1075 58.1765Q3.608 57.956 2.951 57.956ZM-0.46 65.192Q-0.46 64.463 -0.109 63.941Q0.242 63.419 0.962 63.248L1.538 64.328Q1.133 64.436 0.934999 64.6475Q0.737 64.859 0.737 65.201Q0.737 65.651 1.0655 65.84Q1.394 66.029 2.087 66.029L6.236 66.029L6.236 67.334L1.961 67.334Q0.674 67.334 0.107 66.731Q-0.46 66.128 -0.46 65.192ZM2.429 72.626L2.429 69.953L0.791 69.953L0.791 73.04L-0.352 73.04L-0.352 68.648L6.236 68.648L6.236 72.941L5.102 72.941L5.102 69.953L3.554 69.953L3.554 72.626L2.429 72.626ZM6.236 73.499L6.236 78.809L5.075 78.809L5.075 76.811L-0.352 76.811L-0.352 75.497L5.075 75.497L5.075 73.499L6.236 73.499Z"></path></g><defs><mask id="mask-1_1" style="mask-type:alpha" maskUnits="userSpaceOnUse"><path d="M0 0L100 0L0 100L0 0Z"   fill="#FFFFFF" ></path></mask></defs></svg>