<svg xmlns="http://www.w3.org/2000/svg" xmlns:xlink="http://www.w3.org/1999/xlink" width="1600" height="800" viewBox="0 0 1600 800" fill="none"><path    stroke="rgba(64, 64, 64, 1)" stroke-width="3"  stroke-linecap="round"  d="M4 440.122C4 440.122 21.155 427.119 25.148 420.202C28.166 414.973 30.326 409.891 28.962 404.04C26.867 395.047 4 373.771 4 373.771"></path><path    stroke="rgba(64, 64, 64, 1)" stroke-width="3"  stroke-linecap="round"  d="M1596 637.128C1596 637.128 1549.4 619.427 1535.68 609.571C1526.93 603.286 1520.95 596.616 1517.23 589.899C1514.31 584.611 1512.2 578.964 1512.98 573.737C1513.8 568.168 1518.44 561.622 1522.92 557.576C1527.37 553.566 1532.22 551.368 1539.71 549.495C1552.74 546.238 1596 547.166 1596 547.166"></path><path    stroke="rgba(64, 64, 64, 1)" stroke-width="3"  stroke-linecap="round"  d="M4 472.595C4 472.595 47.326 456.217 61.15 444.444C72.055 435.157 83.092 423.199 84.109 412.121C85.073 401.619 78.25 389.261 69.107 379.798C56.155 366.392 5.314 347.475 5.314 347.475"></path><path    stroke="rgba(64, 64, 64, 1)" stroke-width="3"  stroke-linecap="round"  d="M1596 670.037C1596 670.037 1551.38 656.094 1531.28 646.465C1512.14 637.297 1492.97 625.855 1477.85 614.141C1464.84 604.062 1452.31 593.519 1444.8 581.818C1438.32 571.732 1431.64 559.122 1433.18 549.495C1434.64 540.388 1443.72 531.402 1452.07 525.253C1461.33 518.433 1474.07 515.265 1487.44 511.917C1503.82 507.814 1525.28 505.119 1543.72 504.553C1561.44 504.008 1596 508.149 1596 508.149"></path><path    stroke="rgba(64, 64, 64, 1)" stroke-width="3"  stroke-linecap="round"  d="M1596 272.668C1596 272.668 1573.21 253.553 1566.93 242.424C1561.33 232.485 1558.26 221.085 1558.29 210.101C1558.31 198.664 1562.09 186.033 1567.84 175.107C1574.14 163.131 1596 141.844 1596 141.844"></path><path    stroke="rgba(64, 64, 64, 1)" stroke-width="3"  stroke-linecap="round"  d="M4 496.116C4 496.116 74.769 473.219 96.079 460.606C109.231 452.821 118.065 445.27 124.813 436.364C130.491 428.868 135.129 420.329 135.833 412.121C136.516 404.16 133.47 394.695 129.499 387.879C125.68 381.322 121.634 377.386 112.881 371.717C93.572 359.212 8.04 330.088 8.04 330.088"></path><path    stroke="rgba(64, 64, 64, 1)" stroke-width="3"  stroke-linecap="round"  d="M1596 694.247C1596 694.247 1538.23 675.009 1511.84 662.626C1486.71 650.83 1463.93 637.869 1440.97 622.222C1416.83 605.774 1387.74 584.218 1370.77 565.657C1358.31 552.03 1343.49 536.923 1343.78 525.253C1344 516.055 1352.5 507.57 1361.75 501.01C1375.26 491.44 1400.11 486.988 1423.12 482.014C1451.42 475.894 1489.26 470.955 1519.6 469.819C1546.5 468.811 1596 473.706 1596 473.706"></path><path    stroke="rgba(64, 64, 64, 1)" stroke-width="3"  stroke-linecap="round"  d="M1596 314.382C1596 314.382 1570.86 302.486 1559.8 294.512C1548.79 286.57 1537.35 276.227 1529.77 266.667C1523.51 258.776 1519.11 251.402 1515.96 242.424C1512.56 232.701 1510.52 220.842 1510.86 210.101C1511.21 199.293 1514.04 188.249 1518.14 177.778C1522.48 166.662 1527.39 156.231 1536.81 145.455C1550.14 130.197 1596 99.67 1596 99.67"></path><path    stroke="rgba(64, 64, 64, 1)" stroke-width="3"  stroke-linecap="round"  d="M4 516.158C4 516.158 99.199 490.753 128.643 475.391C147.082 465.771 159.993 456.144 169.719 444.444C177.869 434.642 184.476 422.342 185.815 412.121C186.924 403.661 185.148 395.433 180.864 387.879C175.55 378.508 167.049 370.533 152.764 362.196C124.195 345.521 8.04 314.853 8.04 314.853"></path><path    stroke="rgba(64, 64, 64, 1)" stroke-width="3"  stroke-linecap="round"  d="M1596 715.444C1596 715.444 1517.46 686.801 1471.36 664.458C1409.8 634.623 1314.85 569.217 1262.31 546.35C1232.77 533.492 1217.34 530.298 1189.95 523.428C1155.21 514.716 1095.13 510.582 1069.96 501.01C1057.22 496.162 1043.88 490.741 1043.14 484.848C1042.51 479.828 1051.26 473.07 1059.12 468.687C1071.91 461.566 1092.06 458.487 1117.59 455.271C1164.33 449.384 1250.39 454.715 1318.59 450.244C1389.66 445.586 1485.68 429.472 1535.68 427.164C1561.96 425.95 1596 427.988 1596 427.988"></path><path    stroke="rgba(64, 64, 64, 1)" stroke-width="3"  stroke-linecap="round"  d="M1596 362.466C1596 362.466 1559.65 345.636 1543.72 334.82C1528.33 324.371 1513.6 312.138 1501.74 298.99C1490.56 286.593 1479.84 272.698 1473.9 258.586C1468.45 245.658 1465.81 232.245 1465.97 218.182C1466.15 202.738 1470.13 185.991 1476.67 169.697C1484.28 150.746 1498.24 127.733 1511.56 112.307C1522.97 99.088 1535.41 88.619 1549.51 80.808C1563.56 73.027 1596 65.47 1596 65.47"></path><path    stroke="rgba(64, 64, 64, 1)" stroke-width="3"  stroke-linecap="round"  d="M4 534.373C4 534.373 74.133 520.609 104.523 510.744C131.012 502.146 156.413 492.648 176.884 480.415C194.36 469.972 211.386 458.324 221.333 444.444C229.965 432.399 236.746 416.657 236.227 404.04C235.755 392.561 229.216 380.781 221.19 371.717C212.085 361.435 200.695 355.449 182.242 347.475C145.666 331.67 8.04 301.318 8.04 301.318"></path><path    stroke="rgba(64, 64, 64, 1)" stroke-width="3"  stroke-linecap="round"  d="M1595.67 735.354C1595.67 735.354 1529.92 710.887 1487.44 691.903C1424 663.556 1317.74 598.895 1254.27 576.759C1213.57 562.565 1191.74 560.23 1149.75 554.216C1087.66 545.324 960.354 546.084 916.583 537.377C898.828 533.844 889.041 532.1 880.077 525.253C872.278 519.295 863.931 509.082 863.957 501.01C863.983 492.92 872.786 484.165 880.307 476.768C889.579 467.647 901.178 460.477 917.565 452.525C944.243 439.581 992.875 422.752 1029.15 414.721C1062.07 407.432 1086.69 406.263 1125.63 404.151C1184.94 400.934 1300.82 408.116 1350.75 404.323C1375.86 402.415 1389.9 400.203 1407.04 395.677C1422.2 391.672 1439.12 386.584 1448.72 379.798C1455.33 375.12 1460.22 369.44 1462.42 363.636C1464.35 358.567 1464.3 354.558 1462.79 347.475C1459.43 331.673 1435.42 295.824 1428.39 274.747C1423.35 259.657 1419.87 250.094 1420.11 234.343C1420.44 211.987 1430.01 179.224 1439.2 153.477C1448.26 128.078 1462.94 99.744 1474.65 80.808C1482.96 67.371 1489.07 56.244 1499.41 48.485C1509.51 40.899 1521.78 37.123 1535.68 34.376C1552.98 30.956 1596 33.211 1596 33.211"></path><path    stroke="rgba(64, 64, 64, 1)" stroke-width="3"  stroke-linecap="round"  d="M4 551.666C4 551.666 89.052 536.066 125.786 525.253C157.349 515.961 186.928 506.214 211.922 492.929C233.682 481.364 255.829 468.759 268.748 452.525C279.954 438.445 289.006 419.418 288.77 404.04C288.553 389.91 280.262 374.294 270.616 363.636C260.509 352.469 248.85 347.399 228.455 339.394C184.473 322.131 8.04 288.659 8.04 288.659"></path><path    stroke="rgba(64, 64, 64, 1)" stroke-width="3"  stroke-linecap="round"  d="M1596 755.351C1596 755.351 1374.67 648.626 1310.55 621.973C1278.84 608.793 1265.33 602.728 1238.19 595.495C1205.15 586.69 1171.27 580.778 1125.63 576.164C1056.05 569.131 917.11 577.144 860.302 567.825C832.56 563.274 816.176 559.029 799.708 549.495C785.5 541.269 769.49 528.214 765.413 517.172C762.48 509.229 764.071 500.867 768.03 492.929C773.543 481.877 785.733 471.709 802.523 460.606C833.425 440.171 900.989 411.334 949.012 395.96C992.464 382.048 1028.73 375.464 1077.39 369.391C1140.03 361.572 1245.41 369.17 1294.47 359.776C1320.71 354.752 1341.18 349.329 1353.19 339.394C1361.25 332.727 1363.93 326.3 1367.17 315.152C1372.94 295.274 1365.6 259.169 1370.93 226.263C1377.87 183.351 1413.4 114.185 1412.56 80.808C1412.1 63.076 1408.07 52.149 1398.73 40.404C1386.88 25.492 1340.31 4 1340.31 4"></path><path    stroke="rgba(64, 64, 64, 1)" stroke-width="3"  stroke-linecap="round"  d="M4 568.654C4 568.654 113.148 549.111 160.804 535.271C202.317 523.215 244.518 509.236 274.845 492.929C297.597 480.696 318.026 468.767 330.122 452.525C340.606 438.447 346.95 419.522 347.307 404.04C347.63 390.014 343.702 375.089 335.048 363.636C324.751 350.008 309.62 341.342 284.755 331.313C230.742 309.528 8.04 276.505 8.04 276.505"></path><path    stroke="rgba(64, 64, 64, 1)" stroke-width="3"  stroke-linecap="round"  d="M1596 776.013C1596 776.013 1383.72 672.752 1318.59 645.379C1284.15 630.901 1268.13 623.455 1238.19 615.517C1202.46 606.042 1163.83 599.243 1117.59 595.711C1055.96 591.005 955.214 600.162 900.503 597.952C867.138 596.605 846.584 596.156 820.101 590.61C792.967 584.928 760.14 573.884 739.698 563.804C725.66 556.881 715.546 549.817 706.581 541.414C698.73 534.054 690.74 526.441 687.801 517.172C684.782 507.651 685.23 494.21 689.256 484.848C693.365 475.297 700.439 469.481 712.641 460.606C738.849 441.544 804.606 411.655 852.261 392.428C899.411 373.406 944.229 357.945 996.985 345.638C1057.96 331.414 1148.17 328.37 1197.99 316.145C1228.59 308.637 1253.7 302.563 1270.36 290.909C1282.11 282.694 1286.12 274.155 1294.47 261.432C1307.15 242.126 1324.09 210.744 1334.67 183.499C1345.37 155.952 1357.66 116.975 1358.12 96.97C1358.36 86.44 1356.07 80.503 1352.72 72.727C1349.09 64.287 1344.86 56.868 1336.33 48.485C1322.11 34.498 1268.11 4 1268.11 4"></path><path    stroke="rgba(64, 64, 64, 1)" stroke-width="3"  stroke-linecap="round"  d="M4 585.869C4 585.869 116.113 565.829 168.844 552.54C218.615 539.998 270.938 524.906 312.231 509.091C345.182 496.471 381.575 480.442 398.66 468.687C407.097 462.882 411.273 459.045 415.393 452.525C419.713 445.689 422.962 438.631 423.546 428.283C424.542 410.635 419.444 373.538 407.917 355.556C398.1 340.241 381.586 331.191 364.721 323.232C345.765 314.287 328.571 312.927 298.505 307.071C236.111 294.916 8.04 264.543 8.04 264.543"></path><path    stroke="rgba(64, 64, 64, 1)" stroke-width="3"  stroke-linecap="round"  d="M1590.05 796C1590.05 796 1389.54 694.993 1326.63 667.452C1292.5 652.51 1276.65 644.613 1246.23 636.145C1208.82 625.728 1167 617.46 1117.59 613.828C1051.54 608.974 945.22 621.844 884.422 619.671C845.228 618.271 816.598 616.033 787.94 610.334C764.069 605.587 743.457 598.6 723.618 590.71C705.462 583.489 689.187 575.251 673.174 565.657C657.243 556.112 640.445 544.942 627.761 533.333C616.684 523.195 604.926 511.716 600.146 501.01C596.521 492.89 595.227 483.757 596.907 476.768C598.412 470.504 601.559 466.452 608.073 460.606C622.387 447.76 655.313 431.946 691.457 415.419C753.007 387.277 865.072 344.149 948.744 318.253C1025.55 294.482 1122.42 283.033 1173.87 263.35C1202.74 252.306 1219.07 244.767 1238.19 228.911C1258.99 211.66 1281.47 180.753 1292.33 161.616C1299.19 149.527 1302.06 140.243 1304.29 129.293C1306.45 118.683 1308.54 108.41 1305.81 96.97C1302.22 81.955 1291.57 62.93 1278.31 48.485C1262.62 31.41 1214.07 4.45401 1214.07 4.45401"></path><path    stroke="rgba(64, 64, 64, 1)" stroke-width="3"  stroke-linecap="round"  d="M4 12.658L21.204 4"></path><path    stroke="rgba(64, 64, 64, 1)" stroke-width="3"  stroke-linecap="round"  d="M4 603.923C4 603.923 300.443 531.86 385.93 520.336C428.426 514.608 453.765 511.83 482.412 515.264C506.294 518.127 520.961 524.479 546.734 534.536C588.796 550.951 663.895 596.098 707.538 612.815C735.849 623.659 753.79 628.846 779.899 633.51C809.503 638.799 837.488 640.206 876.382 640.758C935.741 641.604 1038.19 627.457 1101.51 630.281C1148.04 632.354 1183.84 637.193 1222.11 646.738C1258.72 655.87 1286.1 667.576 1326.63 685.273C1386.56 711.44 1543.72 795.587 1543.72 795.587"></path><path    stroke="rgba(64, 64, 64, 1)" stroke-width="3"  stroke-linecap="round"  d="M1165.99 4C1165.99 4 1211.04 31.57 1225.98 48.485C1238.88 63.091 1250.64 80.291 1253.37 96.97C1255.95 112.673 1251.76 130.15 1244.09 145.455C1235.06 163.463 1217.18 181.889 1197.99 195.92C1176.15 211.889 1151.11 221.207 1117.59 232.983C1066.31 250.995 987.882 262.777 916.583 282.959C833.917 306.359 707.377 354.513 651.256 367.367C625.896 373.175 612.157 375.488 594.975 375.431C580.446 375.382 565.224 373.741 554.774 369.398C546.877 366.116 542.783 362.254 536.139 355.556C525.455 344.784 514.975 317.609 500.731 307.071C488.411 297.955 479.088 296.424 458.291 292.345C406.204 282.127 258.608 285.463 176.884 277.297C113.289 270.943 8.04004 252.511 8.04004 252.511"></path><path    stroke="rgba(64, 64, 64, 1)" stroke-width="3"  stroke-linecap="round"  d="M4 27.651L50.941 4"></path><path    stroke="rgba(64, 64, 64, 1)" stroke-width="3"  stroke-linecap="round"  d="M1122.68 4C1122.68 4 1176.99 46.12 1189.14 64.646C1196.63 76.062 1199.6 86.11 1200.21 96.97C1200.8 107.661 1198.07 119.104 1193.03 129.293C1187.34 140.796 1176.57 152.276 1165.83 161.561C1154.6 171.267 1143.97 177.997 1126.64 185.859C1097.86 198.915 1047.07 213.051 1005.03 223.062C961.112 233.518 909.072 241.591 868.342 246.609C835.772 250.622 803.603 254.109 779.899 253.218C763.851 252.614 755.724 251.312 739.698 247.151C714.189 240.527 671.457 217.356 643.216 211.024C622.307 206.336 611.088 204.388 586.935 206.35C541.606 210.033 452.143 244.844 393.97 254.59C347.097 262.443 308.889 264.853 265.327 265.812C220.488 266.799 172.647 264.478 128.643 259.932C87.051 255.635 8.04004 240.11 8.04004 240.11"></path><path    stroke="rgba(64, 64, 64, 1)" stroke-width="3"  stroke-linecap="round"  d="M4 623.776C4 623.776 252.146 565.746 337.688 555.417C390.278 549.067 429.792 546.839 466.332 550.492C494.12 553.27 510.296 558.542 538.693 568.014C582.238 582.538 654.612 621.679 699.497 637.2C730.44 647.9 752.225 654.285 779.899 658.549C808.45 662.948 832.369 663.105 868.342 662.642C924.744 661.916 1023.66 645.935 1085.43 646.986C1131.53 647.77 1166.37 650.739 1206.03 659.82C1246.79 669.152 1283.3 683.991 1326.58 703.03C1380.61 726.796 1503.14 796 1503.14 796"></path><path    stroke="rgba(64, 64, 64, 1)" stroke-width="3"  stroke-linecap="round"  d="M4 43.399L82.092 4"></path><path    stroke="rgba(64, 64, 64, 1)" stroke-width="3"  stroke-linecap="round"  d="M1081.11 4C1081.11 4 1129.84 47.94 1139.21 64.646C1144.34 73.775 1145.44 80.785 1145.62 88.889C1145.83 96.947 1144.04 105.438 1140.46 113.131C1136.47 121.691 1129.7 129.956 1121.66 137.374C1112.08 146.179 1101.05 153.615 1085.44 160.987C1061.56 172.26 1025.23 184.138 988.945 191.303C944.271 200.126 888.138 207.451 836.181 204.398C781.115 201.163 710.612 175.477 667.492 169.697C641.081 166.157 625.076 164.662 603.015 165.59C579.539 166.579 558.495 169.282 530.653 176.36C490.249 186.631 429.748 217.169 385.93 229.208C350.951 238.818 325.028 243.882 289.447 247.376C246.247 251.618 192.378 252.357 144.724 248.771C97.624 245.226 5.14502 226.263 5.14502 226.263"></path><path    stroke="rgba(64, 64, 64, 1)" stroke-width="3"  stroke-linecap="round"  d="M4 647.411C4 647.411 230.068 594.756 297.487 583.694C332.48 577.953 351.757 575.826 377.889 574.695C402.608 573.625 425.089 573.328 450.251 576.501C478.426 580.054 505.408 585.9 538.693 596.832C584.948 612.024 654.585 651.048 699.497 666.48C730.416 677.104 753.596 683.724 779.899 687.284C804.454 690.607 821.529 689.821 852.261 688.432C906.618 685.976 1013.94 664.976 1077.39 664.439C1123.79 664.046 1158.32 666.624 1197.99 675.232C1238.75 684.076 1277.3 699.349 1318.59 717.632C1365.43 738.372 1463.32 795.872 1463.32 795.872"></path><path    stroke="rgba(64, 64, 64, 1)" stroke-width="3"  stroke-linecap="round"  d="M4 60.555L115.896 4"></path><path    stroke="rgba(64, 64, 64, 1)" stroke-width="3"  stroke-linecap="round"  d="M1039.63 4C1039.63 4 1078.44 38.954 1085.34 56.566C1090.59 69.982 1091.69 84.668 1086.59 96.97C1080.55 111.541 1062.58 125.466 1045.23 135.775C1024.3 148.209 995.864 155.913 966.878 161.616C932.67 168.347 894.019 171.722 852.261 169.648C801.276 167.115 729.501 145.894 683.417 140.798C651.824 137.304 630.366 135.11 603.015 136.69C574.147 138.358 547.498 142.306 514.573 151.552C469.972 164.075 406.312 199.035 361.809 212.746C328.796 222.916 306.258 228.259 273.367 232.217C232.954 237.08 181.729 238.869 136.683 235.336C91.947 231.828 4 211.281 4 211.281"></path><path    stroke="rgba(64, 64, 64, 1)" stroke-width="3"  stroke-linecap="round"  d="M4 682.076C4 682.076 67.214 657.021 102.739 646.465C142.879 634.538 191.936 623.615 233.166 615.718C269.777 608.705 304.215 602.901 337.688 600.242C368.314 597.809 394.602 595.691 426.131 599.22C463.461 603.397 501.695 611.784 546.734 628.025C609.654 650.716 716.589 724.794 763.819 734.974C784.912 739.52 790.5 736.058 812.06 733.373C857.453 727.721 960.646 695.195 1021.11 687.813C1066.51 682.27 1101.16 680.056 1141.71 684.388C1184.2 688.927 1226.64 699.552 1270.35 716.037C1320.19 734.834 1423.12 795.576 1423.12 795.576"></path><path    stroke="rgba(64, 64, 64, 1)" stroke-width="3"  stroke-linecap="round"  d="M815.794 796C815.794 796 777.238 778.247 755.779 777.519C731.442 776.693 677.158 796 677.158 796"></path><path    stroke="rgba(64, 64, 64, 1)" stroke-width="3"  stroke-linecap="round"  d="M4 80.345L154.598 4"></path><path    stroke="rgba(64, 64, 64, 1)" stroke-width="3"  stroke-linecap="round"  d="M996.287 4C996.287 4 1025.78 34.006 1030.72 48.485C1034.47 59.46 1034.96 70.863 1030.71 80.808C1025.6 92.759 1010.76 104.758 996.985 113.069C981.449 122.44 961.877 127.721 940.704 131.863C914.827 136.925 886.389 138.841 852.261 137.537C804.922 135.727 730.775 117.548 683.417 113.662C649.307 110.864 624.963 109.122 594.975 111.604C563.377 114.22 533.677 119.19 498.492 130.004C452.694 144.08 390.283 181.002 345.729 196.025C312.763 207.14 290.234 213.561 257.286 217.9C216.927 223.215 164.093 225.027 120.603 220.554C79.926 216.37 4.00696 193.939 4.00696 193.939"></path><path    stroke="rgba(64, 64, 64, 1)" stroke-width="3"  stroke-linecap="round"  d="M176.884 795.85C176.884 795.85 127.781 783.905 109.023 775.758C94.4821 769.442 81.1541 763.196 72.3621 754.196C64.877 746.535 57.73 736.104 57.359 727.273C57.014 719.068 61.508 710.695 68.3121 703.03C78.7431 691.279 101.804 679.773 121.838 670.707C144.542 660.433 171.567 653.32 198.395 646.465C227.233 639.096 259.196 632.692 289.447 628.606C319.023 624.612 350.752 621.947 377.889 621.976C401.034 622.001 420.916 623.475 442.211 626.938C463.801 630.449 485.836 635.73 506.533 643.051C527.134 650.338 548.283 660.111 566.126 670.707C582.351 680.342 599.442 692.092 609.785 703.03C617.344 711.024 623.87 718.823 625.716 727.273C627.413 735.042 626.137 744.121 622.021 751.515C616.942 760.641 604.878 768.774 593.604 775.758C580.438 783.913 546.734 795.733 546.734 795.733"></path><path    stroke="rgba(64, 64, 64, 1)" stroke-width="3"  stroke-linecap="round"  d="M917.514 796C917.514 796 910.22 782.179 909.865 775.758C909.552 770.119 910.51 764.932 914.001 759.596C919.366 751.395 931.597 742.434 945.061 735.354C964.314 725.228 995.149 716.567 1021.9 711.111C1049.87 705.408 1081.73 702.612 1109.55 702.607C1134.82 702.602 1158.71 705.308 1181.91 709.6C1204.08 713.701 1221.14 717.712 1245.88 727.273C1283.37 741.758 1381.86 796 1381.86 796"></path><path    stroke="rgba(64, 64, 64, 1)" stroke-width="3"  stroke-linecap="round"  d="M4 107.776C4 107.776 57.22 67.64 88.442 50.957C122.871 32.561 202.946 4 202.946 4"></path><path    stroke="rgba(64, 64, 64, 1)" stroke-width="3"  stroke-linecap="round"  d="M947.947 4C947.947 4 965.843 21.931 969.437 32.323C972.865 42.233 974.045 55.41 969.985 64.646C965.671 74.465 953.531 82.823 942.663 88.889C930.731 95.549 916.64 98.943 900.503 101.583C879.809 104.968 857.519 104.952 828.141 103.888C782.095 102.221 701.393 86.647 651.256 85.384C614.301 84.453 585.974 85.545 554.774 90.586C524.382 95.497 499.24 102.667 466.332 114.732C421.711 131.091 360.524 170.509 313.568 185.96C276.219 198.251 244.985 204.288 209.045 207.095C171.512 210.025 123.812 206.76 92.852 202.02C71.661 198.776 55.705 194.011 40.201 188.003C26.967 182.874 4.974 169.697 4.974 169.697"></path><path d="M184.463 686.869C197.834 678.799 215.089 673.489 233.166 668.223C254.677 661.956 281.29 656.513 305.528 653.456C329.534 650.428 355.308 649.174 377.889 649.862C397.853 650.47 415.601 652.184 434.171 656.109C453.13 660.117 473.63 665.627 490.452 673.896C506.095 681.584 523.984 692.378 532.354 703.03C538.328 710.632 542.496 719.381 541.725 727.273C540.916 735.562 534.202 744.69 526.41 751.515C516.282 760.385 498.832 766.6 482.412 771.764C463.338 777.762 440.821 781.094 418.09 783.341C392.877 785.833 364.289 786.15 337.688 784.866C311.311 783.592 283.293 780.437 259.145 775.758C237.906 771.642 217.325 767.09 200.146 759.596C185.25 753.099 167.682 745.147 161.067 735.354C156.229 728.189 154.229 718.531 156.845 711.111C160.042 702.043 173.239 693.643 184.463 686.869Z" stroke="rgba(64, 64, 64, 1)" stroke-width="3"  stroke-linecap="round" ></path><path    stroke="rgba(64, 64, 64, 1)" stroke-width="3"  stroke-linecap="round"  d="M990.273 796C990.273 796 989.314 775.428 993.281 767.677C997.112 760.192 1004.74 755.044 1013.07 749.951C1023.66 743.464 1038.03 738.259 1053.27 734.459C1071.95 729.799 1093.49 726.208 1117.59 726.633C1148.69 727.181 1189.11 732.574 1224.18 743.434C1261.51 754.996 1334.58 796 1334.58 796"></path><path    stroke="rgba(64, 64, 64, 1)" stroke-width="3"  stroke-linecap="round"  d="M885.581 4C885.581 4 896.902 17.591 898.661 24.242C900.102 29.694 900.583 35.356 897.745 40.404C893.53 47.901 880.399 56.182 868.342 60.653C853.159 66.283 836.274 66.079 812.06 66.704C768.261 67.834 678.809 55.473 627.136 56.432C589.76 57.126 561.038 59.249 530.653 65.394C502.307 71.126 480.346 78.339 450.251 90.833C408.385 108.214 345.288 150.307 305.528 166.281C279.489 176.742 260.418 181.575 238.324 185.859C217.573 189.882 197.613 191.657 176.884 191.994C155.704 192.339 132.308 191.032 112.563 187.68C95.166 184.726 78.156 180.745 64.322 174.361C52.403 168.862 39.534 161.04 33.566 153.535C29.491 148.411 27.306 143.299 27.334 137.374C27.367 130.103 30.806 121.384 36.94 113.131C46.63 100.093 67.83 85.117 87.964 72.727C112.439 57.666 144.842 43.625 175.245 32.323C206.563 20.682 273.367 4.293 273.367 4.293"></path><path d="M321.608 700.394C332.675 697.173 348.913 695.696 361.809 696.268C373.921 696.805 388.547 698.046 396.811 703.03C403.111 706.83 410.729 714.605 409.776 719.192C408.69 724.424 395.233 729.099 385.93 731.764C374.554 735.022 358.676 735.55 345.729 734.694C333.409 733.88 317.622 732.661 309.999 727.273C304.513 723.395 298.948 715.457 300.202 711.111C301.613 706.22 313.09 702.873 321.608 700.394Z" stroke="rgba(64, 64, 64, 1)" stroke-width="3"  stroke-linecap="round" ></path><path    stroke="rgba(64, 64, 64, 1)" stroke-width="3"  stroke-linecap="round"  d="M1068.95 796C1068.95 796 1082.67 775.183 1093.47 769.172C1106.01 762.185 1124.44 760.505 1141.71 760.089C1161.57 759.611 1184.77 763.322 1206.03 769.02C1228.38 775.008 1272.49 796 1272.49 796"></path><path    stroke="rgba(64, 64, 64, 1)" stroke-width="3"  stroke-linecap="round"  d="M717.98 4L594.975 4.151"></path><path d="M97.124 96.97C107.286 88.056 119.234 80.573 134.921 72.727C157.43 61.47 188.688 48.899 221.522 40.404C262.197 29.88 323.966 22.621 361.809 19.328C387.295 17.11 409.313 15.985 426.131 17.751C437.229 18.917 451.91 19.515 453.386 24.242C454.977 29.341 442.112 38.872 431.607 48.485C411.343 67.027 367.003 101.77 334.593 121.212C305.844 138.457 275.293 153.314 248.176 161.616C225.959 168.418 206.145 170.83 184.925 171.617C163.621 172.408 139.177 171.574 120.603 166.291C104.945 161.838 86.2991 154.785 79.7411 145.455C74.9541 138.644 74.4161 128.831 76.6691 121.212C79.2341 112.532 88.584 104.462 97.124 96.97Z" stroke="rgba(64, 64, 64, 1)" stroke-width="3"  stroke-linecap="round" ></path><path d="M162.556 96.97C173.822 88.14 192.452 81.132 209.045 76.616C226.581 71.844 250.281 67.841 265.327 69.904C276.014 71.369 288.74 75.202 291.764 80.808C294.058 85.061 291.326 91.962 288.651 96.97C285.489 102.887 279.752 107.949 272.308 113.131C261.104 120.931 241.978 130.804 225.126 135.136C207.584 139.644 183.289 142.987 168.844 138.901C158.219 135.895 145.024 128.199 143.973 121.212C142.922 114.223 153.816 103.82 162.556 96.97Z" stroke="rgba(64, 64, 64, 1)" stroke-width="3"  stroke-linecap="round" ></path></svg>